<?xml version="1.0" encoding="UTF-8"?>
<svg xmlns="http://www.w3.org/2000/svg"
     xmlns:xlink="http://www.w3.org/1999/xlink"
     xmlns:gadfly="http://www.gadflyjl.org/ns"
     version="1.2"
     width="423.28mm" height="238.1mm" viewBox="0 0 423.28 238.1"
     stroke="none"
     fill="#000000"
     stroke-width="0.3"
     font-size="3.88"
>
<defs>
  <marker id="arrow" markerWidth="15" markerHeight="7" refX="5" refY="3.5" orient="auto" markerUnits="strokeWidth">
    <path d="M0,0 L15,3.5 L0,7 z" stroke="context-stroke" fill="context-stroke"/>
  </marker>
</defs>
<g class="plotroot xscalable yscalable" id="img-a3ab237b-1">
  <g font-size="3.88" font-family="'PT Sans','Helvetica Neue','Helvetica',sans-serif" fill="#564A55" stroke="#000000" stroke-opacity="0.000" id="img-a3ab237b-2">
    <g transform="translate(208.8,226.48)">
      <g class="primitive">
        <text text-anchor="middle" dy="0.6em">Age</text>
      </g>
    </g>
  </g>
  <g class="guide xlabels" font-size="2.82" font-family="'PT Sans Caption','Helvetica Neue','Helvetica',sans-serif" fill="#6C606B" id="img-a3ab237b-3">
    <g transform="translate(14.69,219.81)">
      <g class="primitive">
        <text text-anchor="middle" dy="0.6em">0</text>
      </g>
    </g>
    <g transform="translate(208.8,219.81)">
      <g class="primitive">
        <text text-anchor="middle" dy="0.6em">50</text>
      </g>
    </g>
    <g transform="translate(402.91,219.81)">
      <g class="primitive">
        <text text-anchor="middle" dy="0.6em">100</text>
      </g>
    </g>
  </g>
  <g class="guide colorkey" id="img-a3ab237b-4">
    <g fill="#4C404B" font-size="2.82" font-family="'PT Sans','Helvetica Neue','Helvetica',sans-serif" id="img-a3ab237b-5">
      <g transform="translate(408.73,114.71)" id="img-a3ab237b-6" class="color_Placebo">
        <g class="primitive">
          <text dy="0.35em">Placebo</text>
        </g>
      </g>
      <g transform="translate(408.73,118.34)" id="img-a3ab237b-7" class="color_Active">
        <g class="primitive">
          <text dy="0.35em">Active</text>
        </g>
      </g>
    </g>
    <g fill-opacity="1" id="img-a3ab237b-8">
      <g transform="translate(406.82,114.71)" id="img-a3ab237b-9" fill="#00BFFF" class="color_Placebo" stroke="#FFFFFF">
        <path d="M-0.91,-0.91 L 0.91 -0.91 0.91 0.91 -0.91 0.91 z" class="primitive"/>
      </g>
      <g transform="translate(406.82,118.34)" id="img-a3ab237b-10" fill="#D4CA3A" class="color_Active" stroke="#FFFFFF">
        <path d="M-0.91,-0.91 L 0.91 -0.91 0.91 0.91 -0.91 0.91 z" class="primitive"/>
      </g>
    </g>
    <g fill="#362A35" font-size="3.88" font-family="'PT Sans','Helvetica Neue','Helvetica',sans-serif" stroke="#000000" stroke-opacity="0.000" id="img-a3ab237b-11">
      <g transform="translate(405.91,110.89)" id="img-a3ab237b-12">
        <g class="primitive">
          <text dy="-0em">Group</text>
        </g>
      </g>
    </g>
  </g>
  <g clip-path="url(#img-a3ab237b-13)">
    <g id="img-a3ab237b-14">
      <g pointer-events="visible" fill="#000000" fill-opacity="0.000" stroke="#000000" stroke-opacity="0.000" class="guide background" id="img-a3ab237b-15">
        <g transform="translate(208.8,114.71)" id="img-a3ab237b-16">
          <path d="M-196.11,-104.1 L 196.11 -104.1 196.11 104.1 -196.11 104.1 z" class="primitive"/>
        </g>
      </g>
      <g class="guide ygridlines xfixed" stroke-dasharray="0.5,0.5" stroke-width="0.2" stroke="#D0D0E0" id="img-a3ab237b-17">
        <g transform="translate(208.8,216.81)" id="img-a3ab237b-18">
          <path fill="none" d="M-196.11,0 L 196.11 0" class="primitive"/>
        </g>
        <g transform="translate(208.8,165.76)" id="img-a3ab237b-19">
          <path fill="none" d="M-196.11,0 L 196.11 0" class="primitive"/>
        </g>
        <g transform="translate(208.8,114.71)" id="img-a3ab237b-20">
          <path fill="none" d="M-196.11,0 L 196.11 0" class="primitive"/>
        </g>
        <g transform="translate(208.8,63.66)" id="img-a3ab237b-21">
          <path fill="none" d="M-196.11,0 L 196.11 0" class="primitive"/>
        </g>
        <g transform="translate(208.8,12.61)" id="img-a3ab237b-22">
          <path fill="none" d="M-196.11,0 L 196.11 0" class="primitive"/>
        </g>
      </g>
      <g class="guide xgridlines yfixed" stroke-dasharray="0.5,0.5" stroke-width="0.2" stroke="#D0D0E0" id="img-a3ab237b-23">
        <g transform="translate(14.69,114.71)" id="img-a3ab237b-24">
          <path fill="none" d="M0,-104.1 L 0 104.1" class="primitive"/>
        </g>
        <g transform="translate(208.8,114.71)" id="img-a3ab237b-25">
          <path fill="none" d="M0,-104.1 L 0 104.1" class="primitive"/>
        </g>
        <g transform="translate(402.91,114.71)" id="img-a3ab237b-26">
          <path fill="none" d="M0,-104.1 L 0 104.1" class="primitive"/>
        </g>
      </g>
      <g class="plotpanel" id="img-a3ab237b-27">
        <metadata>
          <boundingbox value="12.693333333333328mm 10.611666666666679mm 392.22042328042335mm 208.19857142857148mm"/>
          <unitbox value="-0.5151712481018392 0.04039177551263126 101.03034249620369 -0.04078355102526253"/>
        </metadata>
        <g stroke-width="0.3" fill="#000000" fill-opacity="0.000" class="geometry" id="img-a3ab237b-28">
          <g transform="translate(197.16,149.61)" id="img-a3ab237b-29" stroke="#00BFFF" class="color_Placebo" stroke-dasharray="none">
            <path fill="none" d="M-146.89,67.18 L -145.74 67.17 -144.59 67.17 -143.43 67.16 -142.28 67.15 -141.13 67.14 -139.98 67.13 -138.82 67.12 -137.67 67.1 -136.52 67.08 -135.37 67.05 -134.22 67.02 -133.06 66.98 -131.91 66.93 -130.76 66.88 -129.61 66.82 -128.46 66.74 -127.3 66.65 -126.15 66.54 -125 66.42 -123.85 66.27 -122.7 66.11 -121.54 65.91 -120.39 65.69 -119.24 65.43 -118.09 65.14 -116.94 64.8 -115.78 64.41 -114.63 63.98 -113.48 63.49 -112.33 62.93 -111.18 62.31 -110.02 61.61 -108.87 60.84 -107.72 59.98 -106.57 59.02 -105.41 57.97 -104.26 56.81 -103.11 55.55 -101.96 54.17 -100.81 52.66 -99.65 51.03 -98.5 49.27 -97.35 47.38 -96.2 45.35 -95.05 43.18 -93.89 40.87 -92.74 38.42 -91.59 35.83 -90.44 33.1 -89.29 30.24 -88.13 27.25 -86.98 24.14 -85.83 20.9 -84.68 17.56 -83.53 14.12 -82.37 10.59 -81.22 6.98 -80.07 3.3 -78.92 -0.43 -77.76 -4.19 -76.61 -7.98 -75.46 -11.78 -74.31 -15.57 -73.16 -19.33 -72 -23.06 -70.85 -26.73 -69.7 -30.33 -68.55 -33.85 -67.4 -37.26 -66.24 -40.56 -65.09 -43.73 -63.94 -46.76 -62.79 -49.64 -61.64 -52.36 -60.48 -54.91 -59.33 -57.29 -58.18 -59.48 -57.03 -61.49 -55.88 -63.31 -54.72 -64.95 -53.57 -66.39 -52.42 -67.64 -51.27 -68.71 -50.12 -69.59 -48.96 -70.3 -47.81 -70.84 -46.66 -71.21 -45.51 -71.43 -44.35 -71.5 -43.2 -71.44 -42.05 -71.25 -40.9 -70.94 -39.75 -70.54 -38.59 -70.04 -37.44 -69.46 -36.29 -68.82 -35.14 -68.12 -33.99 -67.38 -32.83 -66.61 -31.68 -65.82 -30.53 -65.02 -29.38 -64.23 -28.23 -63.45 -27.07 -62.69 -25.92 -61.97 -24.77 -61.29 -23.62 -60.66 -22.47 -60.09 -21.31 -59.58 -20.16 -59.14 -19.01 -58.77 -17.86 -58.49 -16.71 -58.28 -15.55 -58.17 -14.4 -58.13 -13.25 -58.19 -12.1 -58.33 -10.94 -58.56 -9.79 -58.88 -8.64 -59.28 -7.49 -59.76 -6.34 -60.32 -5.18 -60.94 -4.03 -61.64 -2.88 -62.4 -1.73 -63.21 -0.58 -64.08 0.58 -64.98 1.73 -65.92 2.88 -66.88 4.03 -67.86 5.18 -68.85 6.34 -69.83 7.49 -70.8 8.64 -71.75 9.79 -72.67 10.94 -73.55 12.1 -74.37 13.25 -75.14 14.4 -75.83 15.55 -76.44 16.71 -76.97 17.86 -77.4 19.01 -77.73 20.16 -77.94 21.31 -78.04 22.47 -78.02 23.62 -77.87 24.77 -77.58 25.92 -77.16 27.07 -76.61 28.23 -75.91 29.38 -75.08 30.53 -74.1 31.68 -72.99 32.83 -71.73 33.99 -70.34 35.14 -68.82 36.29 -67.16 37.44 -65.37 38.59 -63.46 39.75 -61.44 40.9 -59.29 42.05 -57.04 43.2 -54.68 44.35 -52.23 45.51 -49.68 46.66 -47.04 47.81 -44.33 48.96 -41.54 50.12 -38.68 51.27 -35.76 52.42 -32.79 53.57 -29.77 54.72 -26.71 55.88 -23.62 57.03 -20.51 58.18 -17.37 59.33 -14.23 60.48 -11.08 61.64 -7.94 62.79 -4.8 63.94 -1.68 65.09 1.41 66.24 4.47 67.4 7.49 68.55 10.47 69.7 13.39 70.85 16.26 72 19.07 73.16 21.81 74.31 24.47 75.46 27.06 76.61 29.57 77.76 31.99 78.92 34.33 80.07 36.57 81.22 38.72 82.37 40.78 83.53 42.75 84.68 44.61 85.83 46.39 86.98 48.06 88.13 49.64 89.29 51.13 90.44 52.53 91.59 53.84 92.74 55.06 93.89 56.19 95.05 57.25 96.2 58.22 97.35 59.12 98.5 59.95 99.65 60.71 100.81 61.41 101.96 62.04 103.11 62.62 104.26 63.14 105.41 63.61 106.57 64.04 107.72 64.42 108.87 64.77 110.02 65.07 111.18 65.35 112.33 65.59 113.48 65.8 114.63 65.99 115.78 66.16 116.94 66.3 118.09 66.43 119.24 66.54 120.39 66.64 121.54 66.72 122.7 66.8 123.85 66.86 125 66.91 126.15 66.96 127.3 67 128.46 67.03 129.61 67.06 130.76 67.08 131.91 67.1 133.06 67.12 134.22 67.13 135.37 67.14 136.52 67.15 137.67 67.16 138.82 67.17 139.98 67.17 141.13 67.17 142.28 67.18 143.43 67.18 144.59 67.18 145.74 67.18 146.89 67.18" class="primitive"/>
          </g>
          <g transform="translate(201.04,146.03)" id="img-a3ab237b-30" stroke="#D4CA3A" class="color_Active" stroke-dasharray="none">
            <path fill="none" d="M-139.45,70.77 L -138.35 70.77 -137.26 70.77 -136.17 70.76 -135.07 70.76 -133.98 70.76 -132.88 70.75 -131.79 70.74 -130.7 70.73 -129.6 70.72 -128.51 70.71 -127.42 70.69 -126.32 70.67 -125.23 70.64 -124.13 70.61 -123.04 70.58 -121.95 70.53 -120.85 70.48 -119.76 70.42 -118.67 70.35 -117.57 70.26 -116.48 70.16 -115.39 70.04 -114.29 69.91 -113.2 69.75 -112.1 69.57 -111.01 69.36 -109.92 69.12 -108.82 68.84 -107.73 68.53 -106.64 68.17 -105.54 67.77 -104.45 67.32 -103.35 66.81 -102.26 66.24 -101.17 65.6 -100.07 64.89 -98.98 64.11 -97.89 63.25 -96.79 62.29 -95.7 61.25 -94.61 60.11 -93.51 58.87 -92.42 57.52 -91.32 56.07 -90.23 54.5 -89.14 52.81 -88.04 51 -86.95 49.07 -85.86 47.01 -84.76 44.83 -83.67 42.52 -82.57 40.08 -81.48 37.52 -80.39 34.83 -79.29 32.02 -78.2 29.09 -77.11 26.05 -76.01 22.89 -74.92 19.62 -73.82 16.25 -72.73 12.78 -71.64 9.22 -70.54 5.58 -69.45 1.85 -68.36 -1.94 -67.26 -5.8 -66.17 -9.71 -65.08 -13.67 -63.98 -17.67 -62.89 -21.7 -61.79 -25.75 -60.7 -29.81 -59.61 -33.87 -58.51 -37.92 -57.42 -41.96 -56.33 -45.96 -55.23 -49.92 -54.14 -53.84 -53.04 -57.69 -51.95 -61.46 -50.86 -65.15 -49.76 -68.74 -48.67 -72.22 -47.58 -75.57 -46.48 -78.8 -45.39 -81.88 -44.29 -84.8 -43.2 -87.56 -42.11 -90.14 -41.01 -92.54 -39.92 -94.75 -38.83 -96.77 -37.73 -98.58 -36.64 -100.19 -35.55 -101.59 -34.45 -102.79 -33.36 -103.78 -32.26 -104.57 -31.17 -105.17 -30.08 -105.58 -28.98 -105.81 -27.89 -105.87 -26.8 -105.77 -25.7 -105.52 -24.61 -105.14 -23.51 -104.64 -22.42 -104.04 -21.33 -103.36 -20.23 -102.6 -19.14 -101.78 -18.05 -100.92 -16.95 -100.03 -15.86 -99.12 -14.76 -98.21 -13.67 -97.31 -12.58 -96.43 -11.48 -95.58 -10.39 -94.75 -9.3 -93.97 -8.2 -93.22 -7.11 -92.52 -6.02 -91.86 -4.92 -91.24 -3.83 -90.65 -2.73 -90.09 -1.64 -89.56 -0.55 -89.05 0.55 -88.54 1.64 -88.04 2.73 -87.52 3.83 -86.97 4.92 -86.39 6.02 -85.77 7.11 -85.09 8.2 -84.34 9.3 -83.52 10.39 -82.6 11.48 -81.6 12.58 -80.48 13.67 -79.26 14.76 -77.93 15.86 -76.47 16.95 -74.9 18.05 -73.2 19.14 -71.39 20.23 -69.47 21.33 -67.43 22.42 -65.29 23.51 -63.05 24.61 -60.73 25.7 -58.34 26.8 -55.88 27.89 -53.37 28.98 -50.82 30.08 -48.25 31.17 -45.67 32.26 -43.09 33.36 -40.54 34.45 -38.01 35.55 -35.53 36.64 -33.1 37.73 -30.73 38.83 -28.44 39.92 -26.23 41.01 -24.1 42.11 -22.06 43.2 -20.11 44.29 -18.25 45.39 -16.47 46.48 -14.78 47.58 -13.17 48.67 -11.62 49.76 -10.14 50.86 -8.71 51.95 -7.32 53.04 -5.97 54.14 -4.63 55.23 -3.31 56.33 -1.98 57.42 -0.64 58.51 0.72 59.61 2.12 60.7 3.56 61.79 5.04 62.89 6.58 63.98 8.18 65.08 9.83 66.17 11.55 67.26 13.33 68.36 15.17 69.45 17.07 70.54 19.03 71.64 21.02 72.73 23.06 73.82 25.14 74.92 27.23 76.01 29.34 77.11 31.46 78.2 33.58 79.29 35.68 80.39 37.76 81.48 39.81 82.57 41.82 83.67 43.78 84.76 45.69 85.86 47.53 86.95 49.31 88.04 51.01 89.14 52.64 90.23 54.18 91.32 55.65 92.42 57.03 93.51 58.32 94.61 59.53 95.7 60.65 96.79 61.7 97.89 62.66 98.98 63.54 100.07 64.35 101.17 65.09 102.26 65.76 103.35 66.37 104.45 66.91 105.54 67.4 106.64 67.84 107.73 68.23 108.82 68.58 109.92 68.88 111.01 69.15 112.1 69.39 113.2 69.59 114.29 69.77 115.39 69.93 116.48 70.06 117.57 70.17 118.67 70.27 119.76 70.36 120.85 70.43 121.95 70.49 123.04 70.54 124.13 70.58 125.23 70.62 126.32 70.65 127.42 70.67 128.51 70.69 129.6 70.71 130.7 70.72 131.79 70.74 132.88 70.74 133.98 70.75 135.07 70.76 136.17 70.76 137.26 70.76 138.35 70.77 139.45 70.77" class="primitive"/>
          </g>
        </g>
      </g>
    </g>
  </g>
  <g class="guide ylabels" font-size="2.82" font-family="'PT Sans Caption','Helvetica Neue','Helvetica',sans-serif" fill="#6C606B" id="img-a3ab237b-31">
    <g transform="translate(11.69,216.81)" id="img-a3ab237b-32">
      <g class="primitive">
        <text text-anchor="end" dy="0.35em">0.00</text>
      </g>
    </g>
    <g transform="translate(11.69,165.76)" id="img-a3ab237b-33">
      <g class="primitive">
        <text text-anchor="end" dy="0.35em">0.01</text>
      </g>
    </g>
    <g transform="translate(11.69,114.71)" id="img-a3ab237b-34">
      <g class="primitive">
        <text text-anchor="end" dy="0.35em">0.02</text>
      </g>
    </g>
    <g transform="translate(11.69,63.66)" id="img-a3ab237b-35">
      <g class="primitive">
        <text text-anchor="end" dy="0.35em">0.03</text>
      </g>
    </g>
    <g transform="translate(11.69,12.61)" id="img-a3ab237b-36">
      <g class="primitive">
        <text text-anchor="end" dy="0.35em">0.04</text>
      </g>
    </g>
  </g>
  <g font-size="3.88" font-family="'PT Sans','Helvetica Neue','Helvetica',sans-serif" fill="#564A55" stroke="#000000" stroke-opacity="0.000" id="img-a3ab237b-37">
    <g transform="translate(208.8,5)" id="img-a3ab237b-38">
      <g class="primitive">
        <text text-anchor="middle" dy="0.6em">Age distribution by group</text>
      </g>
    </g>
  </g>
</g>
<defs>
  <clipPath id="img-a3ab237b-13">
    <path d="M12.69,10.61 L 404.91 10.61 404.91 218.81 12.69 218.81" />
  </clipPath>
</defs>
</svg>
