<?xml version="1.0" encoding="UTF-8"?>
<svg xmlns="http://www.w3.org/2000/svg"
     xmlns:xlink="http://www.w3.org/1999/xlink"
     xmlns:gadfly="http://www.gadflyjl.org/ns"
     version="1.2"
     width="423.28mm" height="238.1mm" viewBox="0 0 423.28 238.1"
     stroke="none"
     fill="#000000"
     stroke-width="0.3"
     font-size="3.88"
>
<defs>
  <marker id="arrow" markerWidth="15" markerHeight="7" refX="5" refY="3.5" orient="auto" markerUnits="strokeWidth">
    <path d="M0,0 L15,3.5 L0,7 z" stroke="context-stroke" fill="context-stroke"/>
  </marker>
</defs>
<g class="plotroot xscalable yscalable" id="img-89ea1b37-1">
  <g font-size="3.88" font-family="'PT Sans','Helvetica Neue','Helvetica',sans-serif" fill="#564A55" stroke="#000000" stroke-opacity="0.000" id="img-89ea1b37-2">
    <g transform="translate(205.58,226.48)">
      <g class="primitive">
        <text text-anchor="middle" dy="0.6em">Age</text>
      </g>
    </g>
  </g>
  <g class="guide xlabels" font-size="2.82" font-family="'PT Sans Caption','Helvetica Neue','Helvetica',sans-serif" fill="#6C606B" id="img-89ea1b37-3">
    <g transform="translate(14.69,219.81)">
      <g class="primitive">
        <text text-anchor="middle" dy="0.6em">-20</text>
      </g>
    </g>
    <g transform="translate(91.05,219.81)">
      <g class="primitive">
        <text text-anchor="middle" dy="0.6em">0</text>
      </g>
    </g>
    <g transform="translate(167.4,219.81)">
      <g class="primitive">
        <text text-anchor="middle" dy="0.6em">20</text>
      </g>
    </g>
    <g transform="translate(243.76,219.81)">
      <g class="primitive">
        <text text-anchor="middle" dy="0.6em">40</text>
      </g>
    </g>
    <g transform="translate(320.11,219.81)">
      <g class="primitive">
        <text text-anchor="middle" dy="0.6em">60</text>
      </g>
    </g>
    <g transform="translate(396.47,219.81)">
      <g class="primitive">
        <text text-anchor="middle" dy="0.6em">80</text>
      </g>
    </g>
  </g>
  <g class="guide colorkey" id="img-89ea1b37-4">
    <g fill="#4C404B" font-size="2.82" font-family="'PT Sans','Helvetica Neue','Helvetica',sans-serif" id="img-89ea1b37-5">
      <g transform="translate(402.28,114.71)" id="img-89ea1b37-6" class="color_Interventions">
        <g class="primitive">
          <text dy="0.35em">Interventions</text>
        </g>
      </g>
      <g transform="translate(402.28,118.34)" id="img-89ea1b37-7" class="color_Placebo">
        <g class="primitive">
          <text dy="0.35em">Placebo</text>
        </g>
      </g>
    </g>
    <g fill-opacity="1" id="img-89ea1b37-8">
      <g transform="translate(400.37,114.71)" id="img-89ea1b37-9" fill="#00BFFF" stroke="#FFFFFF" class="color_Interventions">
        <path d="M-0.91,-0.91 L 0.91 -0.91 0.91 0.91 -0.91 0.91 z" class="primitive"/>
      </g>
      <g transform="translate(400.37,118.34)" id="img-89ea1b37-10" fill="#D4CA3A" stroke="#FFFFFF" class="color_Placebo">
        <path d="M-0.91,-0.91 L 0.91 -0.91 0.91 0.91 -0.91 0.91 z" class="primitive"/>
      </g>
    </g>
    <g fill="#362A35" font-size="3.88" font-family="'PT Sans','Helvetica Neue','Helvetica',sans-serif" stroke="#000000" stroke-opacity="0.000" id="img-89ea1b37-11">
      <g transform="translate(399.47,110.89)" id="img-89ea1b37-12">
        <g class="primitive">
          <text dy="-0em">Group</text>
        </g>
      </g>
    </g>
  </g>
  <g clip-path="url(#img-89ea1b37-13)">
    <g id="img-89ea1b37-14">
      <g pointer-events="visible" fill="#000000" fill-opacity="0.000" stroke="#000000" stroke-opacity="0.000" class="guide background" id="img-89ea1b37-15">
        <g transform="translate(205.58,114.71)" id="img-89ea1b37-16">
          <path d="M-192.89,-104.1 L 192.89 -104.1 192.89 104.1 -192.89 104.1 z" class="primitive"/>
        </g>
      </g>
      <g class="guide ygridlines xfixed" stroke-dasharray="0.5,0.5" stroke-width="0.2" stroke="#D0D0E0" id="img-89ea1b37-17">
        <g transform="translate(205.58,216.81)" id="img-89ea1b37-18">
          <path fill="none" d="M-192.89,0 L 192.89 0" class="primitive"/>
        </g>
        <g transform="translate(205.58,175.97)" id="img-89ea1b37-19">
          <path fill="none" d="M-192.89,0 L 192.89 0" class="primitive"/>
        </g>
        <g transform="translate(205.58,135.13)" id="img-89ea1b37-20">
          <path fill="none" d="M-192.89,0 L 192.89 0" class="primitive"/>
        </g>
        <g transform="translate(205.58,94.29)" id="img-89ea1b37-21">
          <path fill="none" d="M-192.89,0 L 192.89 0" class="primitive"/>
        </g>
        <g transform="translate(205.58,53.45)" id="img-89ea1b37-22">
          <path fill="none" d="M-192.89,0 L 192.89 0" class="primitive"/>
        </g>
        <g transform="translate(205.58,12.61)" id="img-89ea1b37-23">
          <path fill="none" d="M-192.89,0 L 192.89 0" class="primitive"/>
        </g>
      </g>
      <g class="guide xgridlines yfixed" stroke-dasharray="0.5,0.5" stroke-width="0.2" stroke="#D0D0E0" id="img-89ea1b37-24">
        <g transform="translate(14.69,114.71)" id="img-89ea1b37-25">
          <path fill="none" d="M0,-104.1 L 0 104.1" class="primitive"/>
        </g>
        <g transform="translate(91.05,114.71)" id="img-89ea1b37-26">
          <path fill="none" d="M0,-104.1 L 0 104.1" class="primitive"/>
        </g>
        <g transform="translate(167.4,114.71)" id="img-89ea1b37-27">
          <path fill="none" d="M0,-104.1 L 0 104.1" class="primitive"/>
        </g>
        <g transform="translate(243.76,114.71)" id="img-89ea1b37-28">
          <path fill="none" d="M0,-104.1 L 0 104.1" class="primitive"/>
        </g>
        <g transform="translate(320.11,114.71)" id="img-89ea1b37-29">
          <path fill="none" d="M0,-104.1 L 0 104.1" class="primitive"/>
        </g>
        <g transform="translate(396.47,114.71)" id="img-89ea1b37-30">
          <path fill="none" d="M0,-104.1 L 0 104.1" class="primitive"/>
        </g>
      </g>
      <g class="plotpanel" id="img-89ea1b37-31">
        <metadata>
          <boundingbox value="12.693333333333328mm 10.611666666666679mm 385.7737566137567mm 208.19857142857146mm"/>
          <unitbox value="-20.523870477043662 0.050489719390789084 101.04774095408733 -0.05097943878157816"/>
        </metadata>
        <g stroke-width="0.3" fill="#000000" fill-opacity="0.000" class="geometry" id="img-89ea1b37-32">
          <g transform="translate(230.4,161.46)" id="img-89ea1b37-33" stroke-dasharray="none" class="color_Placebo" stroke="#D4CA3A">
            <path fill="none" d="M-140.3,55.34 L -139.2 55.34 -138.1 55.34 -137 55.34 -135.9 55.33 -134.8 55.33 -133.7 55.33 -132.6 55.32 -131.5 55.31 -130.4 55.31 -129.29 55.3 -128.19 55.28 -127.09 55.27 -125.99 55.25 -124.89 55.22 -123.79 55.19 -122.69 55.15 -121.59 55.11 -120.49 55.06 -119.39 54.99 -118.29 54.92 -117.19 54.83 -116.09 54.72 -114.99 54.6 -113.89 54.45 -112.79 54.28 -111.69 54.09 -110.59 53.85 -109.49 53.59 -108.39 53.28 -107.29 52.93 -106.19 52.53 -105.09 52.07 -103.99 51.55 -102.89 50.97 -101.79 50.31 -100.68 49.57 -99.58 48.74 -98.48 47.83 -97.38 46.81 -96.28 45.69 -95.18 44.46 -94.08 43.11 -92.98 41.63 -91.88 40.03 -90.78 38.3 -89.68 36.42 -88.58 34.41 -87.48 32.25 -86.38 29.95 -85.28 27.51 -84.18 24.92 -83.08 22.18 -81.98 19.31 -80.88 16.3 -79.78 13.16 -78.68 9.89 -77.58 6.5 -76.48 3.01 -75.38 -0.58 -74.28 -4.27 -73.18 -8.02 -72.07 -11.85 -70.97 -15.72 -69.87 -19.63 -68.77 -23.56 -67.67 -27.5 -66.57 -31.43 -65.47 -35.34 -64.37 -39.2 -63.27 -43.01 -62.17 -46.75 -61.07 -50.41 -59.97 -53.96 -58.87 -57.4 -57.77 -60.71 -56.67 -63.87 -55.57 -66.89 -54.47 -69.74 -53.37 -72.42 -52.27 -74.92 -51.17 -77.22 -50.07 -79.33 -48.97 -81.24 -47.87 -82.93 -46.77 -84.42 -45.67 -85.7 -44.57 -86.76 -43.47 -87.61 -42.36 -88.25 -41.26 -88.68 -40.16 -88.91 -39.06 -88.93 -37.96 -88.76 -36.86 -88.41 -35.76 -87.87 -34.66 -87.16 -33.56 -86.29 -32.46 -85.27 -31.36 -84.1 -30.26 -82.79 -29.16 -81.37 -28.06 -79.82 -26.96 -78.18 -25.86 -76.44 -24.76 -74.62 -23.66 -72.72 -22.56 -70.76 -21.46 -68.74 -20.36 -66.68 -19.26 -64.59 -18.16 -62.46 -17.06 -60.31 -15.96 -58.15 -14.86 -55.98 -13.75 -53.81 -12.65 -51.64 -11.55 -49.49 -10.45 -47.36 -9.35 -45.25 -8.25 -43.18 -7.15 -41.14 -6.05 -39.14 -4.95 -37.2 -3.85 -35.31 -2.75 -33.48 -1.65 -31.71 -0.55 -30.03 0.55 -28.42 1.65 -26.9 2.75 -25.47 3.85 -24.14 4.95 -22.92 6.05 -21.81 7.15 -20.81 8.25 -19.93 9.35 -19.17 10.45 -18.54 11.55 -18.04 12.65 -17.67 13.75 -17.44 14.86 -17.33 15.96 -17.35 17.06 -17.5 18.16 -17.78 19.26 -18.18 20.36 -18.68 21.46 -19.3 22.56 -20.02 23.66 -20.82 24.76 -21.71 25.86 -22.66 26.96 -23.67 28.06 -24.73 29.16 -25.81 30.26 -26.92 31.36 -28.02 32.46 -29.11 33.56 -30.17 34.66 -31.18 35.76 -32.14 36.86 -33.02 37.96 -33.81 39.06 -34.51 40.16 -35.08 41.26 -35.53 42.36 -35.85 43.47 -36.02 44.57 -36.03 45.67 -35.88 46.77 -35.56 47.87 -35.08 48.97 -34.42 50.07 -33.59 51.17 -32.59 52.27 -31.41 53.37 -30.08 54.47 -28.58 55.57 -26.93 56.67 -25.13 57.77 -23.2 58.87 -21.14 59.97 -18.97 61.07 -16.69 62.17 -14.32 63.27 -11.88 64.37 -9.36 65.47 -6.79 66.57 -4.18 67.67 -1.54 68.77 1.12 69.87 3.78 70.97 6.43 72.07 9.06 73.18 11.66 74.28 14.22 75.38 16.73 76.48 19.18 77.58 21.56 78.68 23.87 79.78 26.11 80.88 28.26 81.98 30.32 83.08 32.28 84.18 34.16 85.28 35.93 86.38 37.61 87.48 39.19 88.58 40.68 89.68 42.06 90.78 43.35 91.88 44.55 92.98 45.66 94.08 46.68 95.18 47.62 96.28 48.48 97.38 49.26 98.48 49.97 99.58 50.61 100.68 51.19 101.79 51.71 102.89 52.18 103.99 52.59 105.09 52.96 106.19 53.29 107.29 53.58 108.39 53.83 109.49 54.05 110.59 54.24 111.69 54.41 112.79 54.56 113.89 54.68 114.99 54.79 116.09 54.88 117.19 54.96 118.29 55.02 119.39 55.08 120.49 55.13 121.59 55.17 122.69 55.2 123.79 55.23 124.89 55.25 125.99 55.27 127.09 55.28 128.19 55.3 129.29 55.31 130.4 55.32 131.5 55.32 132.6 55.33 133.7 55.33 134.8 55.33 135.9 55.34 137 55.34 138.1 55.34 139.2 55.34 140.3 55.34" class="primitive"/>
          </g>
          <g transform="translate(230.4,156.41)" id="img-89ea1b37-34" stroke-dasharray="none" class="color_Interventions" stroke="#00BFFF">
            <path fill="none" d="M-128.56,60.39 L -127.55 60.39 -126.54 60.39 -125.53 60.39 -124.52 60.38 -123.52 60.38 -122.51 60.37 -121.5 60.36 -120.49 60.35 -119.48 60.34 -118.47 60.32 -117.47 60.3 -116.46 60.27 -115.45 60.24 -114.44 60.2 -113.43 60.15 -112.42 60.1 -111.42 60.03 -110.41 59.94 -109.4 59.84 -108.39 59.73 -107.38 59.59 -106.37 59.43 -105.37 59.24 -104.36 59.01 -103.35 58.76 -102.34 58.46 -101.33 58.13 -100.32 57.74 -99.32 57.31 -98.31 56.81 -97.3 56.25 -96.29 55.63 -95.28 54.94 -94.27 54.17 -93.27 53.31 -92.26 52.38 -91.25 51.35 -90.24 50.23 -89.23 49.02 -88.23 47.7 -87.22 46.29 -86.21 44.78 -85.2 43.16 -84.19 41.44 -83.18 39.62 -82.18 37.7 -81.17 35.68 -80.16 33.57 -79.15 31.37 -78.14 29.09 -77.13 26.74 -76.13 24.31 -75.12 21.82 -74.11 19.29 -73.1 16.7 -72.09 14.09 -71.08 11.45 -70.08 8.8 -69.07 6.15 -68.06 3.51 -67.05 0.89 -66.04 -1.69 -65.03 -4.23 -64.03 -6.72 -63.02 -9.14 -62.01 -11.5 -61 -13.77 -59.99 -15.96 -58.98 -18.06 -57.98 -20.06 -56.97 -21.96 -55.96 -23.78 -54.95 -25.49 -53.94 -27.12 -52.94 -28.67 -51.93 -30.14 -50.92 -31.54 -49.91 -32.9 -48.9 -34.21 -47.89 -35.5 -46.89 -36.78 -45.88 -38.07 -44.87 -39.38 -43.86 -40.74 -42.85 -42.15 -41.84 -43.64 -40.84 -45.23 -39.83 -46.92 -38.82 -48.72 -37.81 -50.65 -36.8 -52.71 -35.79 -54.91 -34.79 -57.24 -33.78 -59.7 -32.77 -62.28 -31.76 -64.98 -30.75 -67.78 -29.74 -70.66 -28.74 -73.6 -27.73 -76.58 -26.72 -79.57 -25.71 -82.55 -24.7 -85.49 -23.69 -88.34 -22.69 -91.1 -21.68 -93.71 -20.67 -96.16 -19.66 -98.42 -18.65 -100.46 -17.65 -102.24 -16.64 -103.77 -15.63 -105 -14.62 -105.94 -13.61 -106.56 -12.6 -106.87 -11.6 -106.85 -10.59 -106.52 -9.58 -105.87 -8.57 -104.93 -7.56 -103.69 -6.55 -102.18 -5.55 -100.42 -4.54 -98.43 -3.53 -96.24 -2.52 -93.88 -1.51 -91.36 -0.5 -88.73 0.5 -86.02 1.51 -83.24 2.52 -80.42 3.53 -77.61 4.54 -74.81 5.55 -72.05 6.55 -69.35 7.56 -66.72 8.57 -64.19 9.58 -61.76 10.59 -59.44 11.6 -57.23 12.6 -55.14 13.61 -53.16 14.62 -51.29 15.63 -49.53 16.64 -47.87 17.65 -46.29 18.65 -44.8 19.66 -43.38 20.67 -42.01 21.68 -40.69 22.69 -39.4 23.69 -38.14 24.7 -36.89 25.71 -35.64 26.72 -34.4 27.73 -33.15 28.74 -31.88 29.74 -30.6 30.75 -29.31 31.76 -28 32.77 -26.67 33.78 -25.33 34.79 -23.99 35.79 -22.64 36.8 -21.29 37.81 -19.95 38.82 -18.62 39.83 -17.31 40.84 -16.02 41.84 -14.76 42.85 -13.53 43.86 -12.34 44.87 -11.18 45.88 -10.05 46.89 -8.96 47.89 -7.89 48.9 -6.86 49.91 -5.84 50.92 -4.84 51.93 -3.85 52.94 -2.86 53.94 -1.87 54.95 -0.86 55.96 0.18 56.97 1.25 57.98 2.36 58.98 3.51 59.99 4.72 61 6 62.01 7.33 63.02 8.73 64.03 10.2 65.03 11.74 66.04 13.34 67.05 15 68.06 16.73 69.07 18.5 70.08 20.32 71.08 22.18 72.09 24.06 73.1 25.96 74.11 27.87 75.12 29.78 76.13 31.68 77.13 33.55 78.14 35.39 79.15 37.19 80.16 38.94 81.17 40.63 82.18 42.26 83.18 43.82 84.19 45.3 85.2 46.71 86.21 48.03 87.22 49.27 88.23 50.42 89.23 51.5 90.24 52.48 91.25 53.39 92.26 54.22 93.27 54.97 94.27 55.66 95.28 56.27 96.29 56.82 97.3 57.31 98.31 57.74 99.32 58.12 100.32 58.46 101.33 58.75 102.34 59.01 103.35 59.23 104.36 59.42 105.37 59.58 106.37 59.72 107.38 59.84 108.39 59.94 109.4 60.02 110.41 60.09 111.42 60.15 112.42 60.2 113.43 60.24 114.44 60.27 115.45 60.3 116.46 60.32 117.47 60.34 118.47 60.35 119.48 60.36 120.49 60.37 121.5 60.38 122.51 60.38 123.52 60.39 124.52 60.39 125.53 60.39 126.54 60.39 127.55 60.4 128.56 60.4" class="primitive"/>
          </g>
        </g>
      </g>
    </g>
  </g>
  <g class="guide ylabels" font-size="2.82" font-family="'PT Sans Caption','Helvetica Neue','Helvetica',sans-serif" fill="#6C606B" id="img-89ea1b37-35">
    <g transform="translate(11.69,216.81)" id="img-89ea1b37-36">
      <g class="primitive">
        <text text-anchor="end" dy="0.35em">0.00</text>
      </g>
    </g>
    <g transform="translate(11.69,175.97)" id="img-89ea1b37-37">
      <g class="primitive">
        <text text-anchor="end" dy="0.35em">0.01</text>
      </g>
    </g>
    <g transform="translate(11.69,135.13)" id="img-89ea1b37-38">
      <g class="primitive">
        <text text-anchor="end" dy="0.35em">0.02</text>
      </g>
    </g>
    <g transform="translate(11.69,94.29)" id="img-89ea1b37-39">
      <g class="primitive">
        <text text-anchor="end" dy="0.35em">0.03</text>
      </g>
    </g>
    <g transform="translate(11.69,53.45)" id="img-89ea1b37-40">
      <g class="primitive">
        <text text-anchor="end" dy="0.35em">0.04</text>
      </g>
    </g>
    <g transform="translate(11.69,12.61)" id="img-89ea1b37-41">
      <g class="primitive">
        <text text-anchor="end" dy="0.35em">0.05</text>
      </g>
    </g>
  </g>
  <g font-size="3.88" font-family="'PT Sans','Helvetica Neue','Helvetica',sans-serif" fill="#564A55" stroke="#000000" stroke-opacity="0.000" id="img-89ea1b37-42">
    <g transform="translate(205.58,5)" id="img-89ea1b37-43">
      <g class="primitive">
        <text text-anchor="middle" dy="0.6em">Age distribution by group</text>
      </g>
    </g>
  </g>
</g>
<defs>
  <clipPath id="img-89ea1b37-13">
    <path d="M12.69,10.61 L 398.47 10.61 398.47 218.81 12.69 218.81" />
  </clipPath>
</defs>
</svg>
